<?xml version="1.0" standalone="no"?>
<!DOCTYPE svg PUBLIC "-//W3C//DTD SVG 20010904//EN"
 "http://www.w3.org/TR/2001/REC-SVG-20010904/DTD/svg10.dtd">
<svg version="1.0" xmlns="http://www.w3.org/2000/svg"
 width="1280.000000pt" height="1280.000000pt" viewBox="0 0 1280.000000 1280.000000"
 preserveAspectRatio="xMidYMid meet">
<metadata>
Created by potrace 1.14, written by Peter Selinger 2001-2017
</metadata>
<g transform="translate(0.000000,1280.000000) scale(0.100000,-0.100000)"
fill="#000000" stroke="none">
<path d="M3475 10079 c-293 -24 -515 -61 -747 -125 -931 -257 -1727 -868
-2216 -1700 -251 -427 -418 -914 -477 -1389 -38 -308 -42 -484 -20 -745 21
-238 47 -399 96 -597 179 -725 569 -1375 1121 -1868 596 -533 1274 -836 2083
-932 141 -17 334 -18 3090 -18 l2940 0 176 22 c463 58 860 179 1254 382 366
189 635 384 923 669 488 482 818 1062 988 1733 106 420 135 836 89 1264 -116
1085 -700 2057 -1600 2667 -483 328 -999 528 -1565 608 -275 39 -323 40 -3230
38 -1543 0 -2850 -4 -2905 -9z m120 -1509 c482 -94 879 -369 1167 -810 174
-266 309 -610 362 -922 l7 -38 122 -1 c67 -1 149 -4 182 -8 55 -5 64 -10 102
-52 l42 -45 -101 -105 c-106 -109 -394 -451 -513 -609 -38 -51 -82 -107 -96
-124 -26 -31 -98 -126 -359 -471 -79 -104 -162 -213 -184 -241 -23 -28 -59
-75 -81 -104 -58 -76 -252 -316 -310 -385 -27 -32 -70 -81 -93 -109 -24 -28
-109 -117 -190 -199 -118 -120 -149 -146 -166 -141 -39 11 -201 93 -326 164
-69 39 -142 75 -163 81 -74 20 -142 -6 -275 -104 -98 -73 -148 -100 -233 -127
-120 -39 -122 -39 -167 22 -87 116 -132 237 -172 457 -62 353 -77 370 -644
799 -103 78 -136 108 -136 125 1 42 21 112 40 139 11 15 20 37 20 49 0 40 -32
201 -76 384 -23 99 -49 209 -55 245 -19 98 -16 404 5 520 80 445 252 779 555
1078 313 309 723 496 1206 552 130 14 404 4 530 -20z m3130 -468 c196 -37 175
-25 175 -97 0 -34 3 -130 7 -213 l6 -152 -50 0 -50 0 -18 63 c-63 219 -160
294 -390 304 -242 11 -396 -71 -488 -260 -54 -110 -72 -207 -71 -372 1 -107 7
-158 23 -219 83 -310 351 -447 689 -350 l52 15 0 224 c0 265 5 252 -118 279
l-82 18 0 36 0 37 366 -3 365 -2 -3 -32 c-3 -28 -8 -34 -38 -41 -67 -16 -135
-37 -150 -47 -13 -8 -15 -52 -18 -280 -2 -148 -4 -270 -6 -270 -2 0 -95 -18
-207 -40 -253 -51 -382 -64 -529 -56 -159 10 -251 30 -349 79 -145 71 -248
192 -308 362 -26 76 -28 89 -28 255 0 139 4 188 18 240 79 279 296 469 613
535 103 21 444 14 589 -13z m1196 -468 c99 -47 153 -133 165 -262 l5 -57 -47
-34 -46 -33 -234 -2 c-162 -1 -237 -5 -245 -13 -17 -17 6 -164 37 -234 73
-162 227 -199 409 -99 l74 40 26 -33 25 -32 -37 -34 c-49 -43 -164 -121 -233
-157 -51 -27 -62 -29 -170 -29 -106 0 -120 3 -178 29 -214 99 -298 446 -172
714 38 82 142 188 222 225 82 39 121 46 233 44 89 -2 107 -5 166 -33z m916 22
c132 -35 204 -129 219 -285 l5 -56 -47 -34 -46 -33 -238 -2 c-131 0 -242 -4
-246 -8 -4 -4 -2 -46 4 -93 36 -277 214 -374 449 -244 41 22 76 39 77 37 1 -2
12 -17 24 -35 l22 -32 -67 -53 c-80 -63 -129 -95 -203 -134 -51 -27 -63 -29
-170 -29 -110 0 -118 1 -182 33 -147 72 -222 222 -222 442 0 183 41 290 153
400 100 99 194 138 336 139 44 0 104 -5 132 -13z m928 -12 c50 -12 117 -16
233 -16 89 1 162 -1 162 -3 0 -3 -12 -30 -27 -61 l-28 -56 -65 4 c-40 2 -64
-1 -63 -7 2 -5 12 -37 24 -70 52 -148 -17 -317 -159 -389 -89 -45 -157 -59
-259 -53 l-92 5 -31 -34 c-16 -19 -30 -43 -30 -54 0 -38 34 -44 290 -51 193
-5 255 -10 290 -23 92 -34 127 -100 118 -225 -9 -126 -85 -223 -226 -288 -195
-91 -503 -98 -653 -16 -59 31 -85 61 -100 113 -17 56 2 84 105 154 49 34 88
65 88 70 0 5 -18 18 -38 30 -55 30 -84 78 -84 137 0 53 3 56 129 160 57 47 62
54 47 63 -115 69 -159 145 -159 271 1 104 28 178 89 240 97 101 266 138 439
99z m1184 -1178 c-1 -52 2 -99 5 -105 5 -7 -7 -11 -36 -11 -34 1 -39 3 -25 11
14 8 17 24 17 89 0 50 -4 82 -12 86 -8 5 -6 10 8 15 43 17 45 13 43 -85z m271
-1 c0 -69 3 -95 13 -95 9 0 9 -3 -1 -9 -8 -5 -38 -9 -68 -9 -43 0 -56 4 -64
18 -25 47 9 120 56 120 19 0 24 5 24 25 0 14 -6 25 -12 26 -15 1 21 17 40 18
9 1 12 -24 12 -94z m-469 25 c10 0 19 -4 19 -10 0 -5 -9 -10 -20 -10 -17 0
-20 -7 -20 -50 0 -45 2 -50 23 -50 18 0 19 -2 7 -10 -25 -16 -58 -11 -65 10
-3 11 -4 36 0 57 3 22 1 39 -5 43 -7 5 -3 16 12 33 21 24 23 25 26 7 2 -12 11
-20 23 -20z m289 20 c0 -11 7 -20 15 -20 8 0 15 -4 15 -10 0 -5 -9 -10 -20
-10 -15 0 -20 -7 -20 -27 0 -44 11 -73 27 -73 8 0 11 -4 8 -10 -3 -5 -19 -10
-36 -10 -29 0 -29 0 -29 59 0 36 -5 61 -12 63 -7 3 -2 14 13 30 30 32 39 34
39 8z m-635 -30 c-8 -14 1 -13 25 2 46 29 83 -42 52 -97 -13 -22 -27 -31 -50
-33 -24 -2 -32 -8 -32 -22 0 -10 5 -22 10 -25 20 -13 9 -23 -25 -23 -19 0 -35
4 -35 9 0 5 5 9 10 9 15 0 13 157 -2 163 -8 3 -3 9 12 15 32 14 43 14 35 2z
m179 -3 c-3 -8 0 -27 7 -43 l11 -29 10 25 c5 14 7 33 4 42 -3 14 2 18 21 18
19 0 23 -3 15 -13 -6 -7 -20 -38 -32 -70 -12 -31 -25 -57 -30 -57 -4 0 -18 26
-30 58 -13 31 -30 63 -38 70 -13 10 -9 12 26 12 30 0 40 -4 36 -13z m266 -107
c0 -27 -19 -35 -38 -17 -12 13 -13 19 -3 31 16 19 41 10 41 -14z m-4470 -378
c0 -223 3 -242 40 -255 8 -3 -21 -5 -65 -5 -44 0 -71 3 -60 5 11 3 23 10 27
17 4 6 8 98 8 203 0 180 -1 194 -19 205 -18 11 -17 13 17 29 20 10 40 18 45
18 4 1 7 -97 7 -217z m184 212 c20 -8 21 -50 1 -58 -24 -9 -45 4 -45 28 0 34
12 42 44 30z m357 -20 c23 -21 25 -50 4 -58 -9 -3 -29 8 -50 29 -24 24 -39 33
-52 28 -28 -10 -33 -23 -33 -85 l0 -58 35 0 c24 0 35 -5 35 -15 0 -10 -11 -15
-35 -15 l-35 0 0 -130 0 -129 33 -10 c25 -7 12 -9 -63 -9 -52 0 -86 3 -75 5
42 11 45 21 45 149 l0 124 -30 0 c-20 0 -30 5 -30 15 0 10 10 15 30 15 26 0
30 4 30 28 1 47 34 107 71 125 40 20 92 16 120 -9z m277 -5 c3 -28 -16 -43
-43 -33 -15 6 -21 45 -8 58 16 16 48 1 51 -25z m2444 -80 l3 -110 22 21 c29
26 71 42 94 35 10 -4 28 -18 39 -32 17 -22 20 -40 20 -132 0 -108 7 -132 40
-144 8 -3 -21 -6 -65 -6 -71 -1 -77 1 -55 12 24 12 25 17 28 119 2 98 1 109
-19 129 -23 23 -60 20 -92 -9 -15 -13 -17 -31 -15 -126 3 -108 3 -110 28 -117
15 -4 -7 -7 -55 -7 -58 -1 -74 2 -57 8 l22 10 -2 207 c-3 191 -4 208 -20 207
-32 -3 -19 11 25 28 23 9 45 17 49 17 4 1 9 -49 10 -110z m-4062 78 c-14 -6
-28 -16 -32 -22 -12 -16 -9 -308 3 -343 6 -17 21 -38 34 -46 31 -20 117 -21
155 -1 52 27 60 57 60 227 0 84 -4 158 -8 163 -4 6 -18 16 -32 22 -21 10 -13
12 55 12 76 0 79 0 53 -15 -35 -18 -37 -27 -40 -209 -3 -137 -5 -153 -25 -181
-31 -43 -80 -64 -147 -64 -66 0 -111 17 -146 54 -24 27 -25 34 -31 204 -4 97
-7 178 -8 180 0 2 -16 9 -33 17 -31 13 -28 14 67 14 84 0 96 -2 75 -12z m1410
-93 c0 -44 0 -44 35 -44 24 0 35 -5 35 -15 0 -10 -11 -15 -35 -15 l-35 0 0
-120 c0 -102 2 -122 16 -127 9 -3 25 -1 35 6 24 14 25 -1 2 -21 -31 -27 -58
-30 -84 -9 -22 18 -24 27 -29 148 -4 115 -7 128 -22 125 -27 -4 -22 9 17 47
20 19 38 45 41 58 9 36 24 16 24 -33z m1286 -46 c45 -4 45 -22 -1 -26 l-35 -3
0 -108 c0 -126 11 -153 54 -133 31 14 34 2 6 -23 -23 -21 -75 -24 -93 -6 -8 8
-13 57 -15 141 -3 125 -6 136 -34 131 -17 -2 -6 17 26 48 19 18 38 45 43 60 6
22 8 18 11 -26 3 -51 3 -52 38 -55z m1200 0 c45 -4 45 -22 -1 -26 l-35 -3 0
-108 c0 -126 11 -153 54 -133 25 11 26 11 16 -9 -23 -42 -98 -45 -114 -4 -3 9
-6 70 -6 136 0 72 -4 119 -10 120 -5 1 -14 3 -20 4 -5 1 -12 3 -15 4 -3 0 12
17 34 36 21 20 43 48 47 63 8 23 9 20 12 -25 3 -51 3 -52 38 -55z m-3432 -29
c59 61 132 46 168 -36 36 -83 10 -193 -55 -234 -32 -20 -90 -22 -130 -4 -16 7
-18 2 -15 -61 3 -62 6 -70 28 -81 22 -11 16 -13 -55 -13 -71 0 -77 2 -55 13
l25 13 0 194 0 195 -25 4 c-22 3 -19 6 25 26 l50 23 5 -35 5 -35 29 31z m536
-109 c0 -147 1 -151 23 -160 16 -6 2 -9 -53 -9 -55 0 -69 3 -52 9 21 9 22 14
22 135 l0 125 -27 1 c-25 1 -22 3 22 24 28 13 53 24 58 24 4 1 7 -67 7 -149z
m620 -6 c0 -141 1 -145 23 -154 16 -6 -1 -9 -58 -8 -48 0 -70 3 -55 7 25 7 25
7 25 131 l0 125 -25 4 c-22 3 -19 6 25 26 28 13 53 21 58 18 4 -2 7 -69 7
-149z m179 96 c4 0 16 9 25 19 29 32 73 46 102 32 40 -18 54 -67 54 -186 0
-100 1 -106 23 -115 16 -6 2 -9 -53 -9 -55 0 -69 3 -52 9 21 9 22 14 22 124 0
91 -3 118 -16 130 -22 23 -48 20 -83 -10 -30 -25 -31 -27 -31 -118 0 -92 8
-118 40 -129 8 -3 -19 -5 -60 -5 -41 0 -67 2 -58 5 25 6 29 33 26 153 -3 102
-4 104 -28 111 l-25 6 30 12 c17 6 39 15 50 20 17 7 20 4 23 -20 2 -16 7 -29
11 -29z m456 45 c22 -8 55 -15 73 -15 38 0 40 -23 4 -28 -20 -3 -21 -8 -16
-43 11 -69 -31 -110 -126 -119 -46 -4 -55 -8 -58 -26 -4 -25 27 -34 120 -34
49 0 63 -4 83 -25 90 -89 -95 -207 -232 -150 -62 26 -67 48 -22 99 28 33 29
37 15 52 -21 21 -20 27 9 63 l26 30 -26 25 c-48 48 -29 132 39 166 48 23 58
24 111 5z m719 1 c83 -34 118 -141 74 -226 -42 -82 -122 -111 -198 -72 -42 22
-80 90 -80 142 0 59 38 122 90 148 52 26 69 27 114 8z m342 -1 c27 -8 64 -15
82 -15 23 0 32 -4 29 -12 -2 -7 -15 -13 -29 -13 -24 1 -25 -2 -21 -37 12 -84
-31 -128 -123 -128 -40 0 -53 -4 -58 -17 -11 -28 21 -43 95 -43 81 0 115 -13
128 -51 14 -40 -15 -88 -70 -117 -37 -20 -55 -23 -111 -19 -112 7 -146 49 -93
111 27 32 30 42 15 51 -17 11 -11 43 14 71 l23 28 -26 22 c-21 18 -26 31 -26
67 0 50 21 81 70 103 38 17 42 17 101 -1z m343 -1 c27 -10 45 -26 55 -49 30
-63 28 -65 -90 -65 l-107 0 6 -42 c4 -32 15 -51 41 -75 50 -46 88 -45 134 4
31 33 34 34 28 13 -20 -68 -69 -103 -134 -97 -140 14 -169 242 -39 306 50 25
56 25 106 5z m851 0 c42 -17 70 -55 70 -94 0 -19 -6 -20 -105 -20 l-105 0 0
-25 c0 -58 47 -113 104 -122 32 -5 40 -2 72 33 32 33 36 35 29 14 -20 -69 -73
-106 -138 -97 -97 13 -146 136 -98 243 14 30 30 46 62 62 53 26 57 27 109 6z
m202 -17 c3 -29 13 -35 21 -13 3 8 20 22 38 31 30 16 33 16 51 -2 35 -36 2
-68 -42 -41 -15 10 -23 9 -40 -7 -19 -17 -20 -28 -18 -124 3 -101 4 -106 28
-118 22 -11 16 -13 -55 -12 -66 0 -76 2 -57 11 22 11 23 15 20 132 -3 120 -3
121 -28 125 -22 3 -19 6 25 26 28 13 51 22 52 21 2 -2 4 -15 5 -29z m628 -712
l0 -45 -2999 0 -2999 0 -6 26 c-4 14 -4 34 -1 45 6 19 60 19 3006 19 l2999 0
0 -45z m-505 -220 l0 -40 -2497 -3 -2498 -2 0 45 0 45 2498 -2 2497 -3 0 -40z
m-375 -220 l0 -45 -2125 0 -2125 0 0 38 c0 21 3 42 7 45 3 4 960 7 2125 7
l2118 0 0 -45z"/>
<path d="M3510 8345 c0 -3 35 -51 78 -106 270 -350 322 -436 374 -612 l22 -79
45 7 c81 12 238 62 302 96 67 36 159 118 159 143 0 23 -153 172 -253 247 -155
116 -409 233 -612 282 -103 25 -115 28 -115 22z"/>
<path d="M2789 8324 c-212 -38 -499 -177 -697 -338 -75 -60 -172 -170 -172
-195 0 -18 66 -77 122 -110 56 -34 278 -111 317 -111 15 0 63 74 131 200 65
121 146 238 294 425 87 109 110 147 89 144 -5 0 -42 -7 -84 -15z"/>
<path d="M2978 8106 c-152 -171 -190 -220 -249 -318 -54 -89 -89 -188 -89
-249 0 -35 2 -38 33 -43 57 -9 417 -29 422 -24 3 3 4 176 3 385 l-3 381 -117
-132z"/>
<path d="M3327 8135 c-14 -243 -30 -665 -26 -670 3 -3 111 4 240 15 129 11
235 20 237 20 9 0 -1 77 -19 140 -35 129 -87 207 -249 373 -73 76 -122 138
-166 213 -8 14 -12 -6 -17 -91z"/>
<path d="M1707 7519 c-30 -41 -63 -92 -74 -114 -35 -69 -80 -207 -101 -310
-21 -104 -47 -303 -41 -309 10 -10 699 -32 699 -23 0 3 25 134 55 289 30 156
55 290 55 299 0 9 -8 19 -17 22 -10 3 -121 51 -248 107 -126 56 -240 104 -252
107 -17 4 -31 -8 -76 -68z"/>
<path d="M4375 7471 l-240 -98 2 -44 c3 -65 81 -541 90 -549 4 -4 159 -9 343
-11 l335 -4 -3 95 c-8 234 -91 483 -219 657 -21 29 -45 52 -53 52 -8 0 -123
-44 -255 -98z"/>
<path d="M2480 7312 c0 -4 -18 -124 -40 -266 -23 -142 -39 -260 -37 -263 7 -7
672 -21 679 -14 7 6 13 469 6 476 -4 5 -558 75 -589 75 -10 0 -19 -3 -19 -8z"/>
<path d="M3610 7287 c-157 -5 -286 -10 -286 -11 -1 0 -4 -117 -7 -258 l-5
-258 334 0 c263 0 334 3 334 13 0 27 -51 503 -55 515 -2 6 -10 11 -17 10 -7
-1 -141 -6 -298 -11z"/>
<path d="M3437 6581 c-78 -5 -112 -11 -123 -23 -12 -12 -19 -50 -26 -148 -6
-72 -8 -134 -5 -137 11 -10 301 50 422 86 126 39 295 124 295 148 0 6 -298 59
-435 77 -11 2 -68 0 -128 -3z"/>
<path d="M1643 6563 c-89 -2 -153 -8 -153 -13 0 -5 27 -123 59 -262 33 -139
67 -289 76 -332 l18 -79 106 7 c117 7 295 46 430 95 46 17 86 31 89 31 7 0 -3
91 -39 338 l-33 222 -200 -2 c-111 -1 -270 -4 -353 -5z"/>
<path d="M2384 6553 c3 -10 26 -121 50 -247 25 -126 48 -231 50 -234 6 -6 577
137 588 147 10 8 37 324 29 332 -3 4 -167 10 -364 13 -343 7 -358 6 -353 -11z"/>
<path d="M4460 6376 c-50 -14 -132 -55 -112 -56 14 0 165 36 192 46 12 5 11 8
-5 14 -25 11 -21 11 -75 -4z"/>
<path d="M4215 6283 c-33 -9 -611 -152 -1285 -320 -674 -167 -1232 -306 -1240
-309 -24 -9 105 -127 356 -324 l102 -80 73 26 c280 98 858 378 1806 875 113
59 253 139 253 145 0 2 -1 4 -2 3 -2 -1 -30 -8 -63 -16z"/>
<path d="M4584 6034 c-372 -239 -446 -287 -754 -484 -140 -89 -284 -182 -320
-205 -36 -23 -123 -79 -195 -125 -71 -46 -186 -119 -255 -163 -69 -44 -157
-101 -197 -126 -40 -25 -73 -49 -73 -52 0 -3 44 -34 98 -69 53 -35 189 -125
302 -198 317 -207 281 -188 297 -166 19 26 229 293 333 423 47 58 133 167 191
241 110 141 172 220 607 769 145 183 262 335 260 337 -2 2 -134 -80 -294 -182z"/>
<path d="M7636 7560 c-59 -18 -100 -81 -112 -170 l-7 -53 148 6 c81 4 151 9
155 12 10 6 -8 112 -26 146 -26 51 -96 77 -158 59z"/>
<path d="M8620 7562 c-62 -11 -112 -76 -125 -164 -7 -45 -6 -47 20 -54 26 -6
262 3 276 11 11 7 -11 118 -30 150 -24 43 -85 67 -141 57z"/>
<path d="M9546 7540 c-38 -46 -49 -101 -43 -215 6 -111 25 -176 63 -217 34
-35 66 -42 108 -24 56 23 70 62 74 204 6 196 -33 282 -129 282 -40 0 -51 -4
-73 -30z"/>
<path d="M9418 6593 c-52 -54 -64 -92 -43 -138 35 -73 113 -101 258 -92 116 7
178 28 233 82 39 37 44 47 44 86 0 86 -18 93 -260 97 l-195 4 -37 -39z"/>
<path d="M11142 6468 c-14 -14 -16 -67 -3 -87 5 -8 16 -11 26 -8 12 5 15 17
13 54 -3 48 -15 62 -36 41z"/>
<path d="M10404 6436 c-9 -37 -1 -70 18 -74 23 -4 41 33 33 69 -8 37 -42 40
-51 5z"/>
<path d="M6055 5990 c-41 -16 -47 -35 -44 -124 4 -96 21 -126 71 -126 61 0 88
39 88 127 0 98 -49 150 -115 123z"/>
<path d="M7738 6013 c-23 -27 -28 -54 -18 -98 24 -105 120 -94 120 14 0 81
-61 131 -102 84z"/>
<path d="M7695 5706 c-35 -53 2 -86 98 -86 66 0 112 20 123 52 10 33 -19 48
-95 48 -36 0 -76 3 -88 6 -16 4 -26 -1 -38 -20z"/>
<path d="M8459 6016 c-78 -38 -52 -240 34 -270 22 -8 32 -6 54 10 34 25 47 73
38 141 -11 92 -70 147 -126 119z"/>
<path d="M8796 6008 c-33 -47 -10 -149 36 -161 54 -15 88 47 68 122 -16 61
-74 82 -104 39z"/>
<path d="M8754 5703 c-33 -51 9 -83 110 -83 69 0 116 24 116 60 0 28 -25 37
-123 42 -83 4 -88 3 -103 -19z"/>
<path d="M9120 5998 c-11 -12 -20 -30 -20 -40 0 -16 9 -18 70 -18 63 0 70 2
70 20 0 54 -81 79 -120 38z"/>
<path d="M9971 5994 c-36 -46 -29 -54 49 -54 60 0 70 2 70 18 0 61 -80 85
-119 36z"/>
</g>
</svg>
